<svg width="48" height="49" viewBox="0 0 48 49" fill="none" xmlns="http://www.w3.org/2000/svg">
<path fill-rule="evenodd" clip-rule="evenodd" d="M24 44.3289C35.046 44.3289 44 35.3749 44 24.3289C44 13.2829 35.046 4.32886 24 4.32886C12.954 4.32886 4 13.2829 4 24.3289C4 35.3749 12.954 44.3289 24 44.3289ZM19.94 17.2689C20.2213 16.988 20.6025 16.8302 21 16.8302C21.3975 16.8302 21.7787 16.988 22.06 17.2689L28.06 23.2689C28.3409 23.5501 28.4987 23.9314 28.4987 24.3289C28.4987 24.7264 28.3409 25.1076 28.06 25.3889L22.06 31.3889C21.9227 31.5362 21.7571 31.6544 21.5731 31.7364C21.3891 31.8184 21.1905 31.8625 20.989 31.866C20.7876 31.8696 20.5876 31.8325 20.4008 31.7571C20.214 31.6817 20.0444 31.5694 19.9019 31.4269C19.7595 31.2845 19.6472 31.1148 19.5718 30.9281C19.4963 30.7413 19.4593 30.5412 19.4628 30.3398C19.4664 30.1384 19.5105 29.9398 19.5924 29.7558C19.6744 29.5718 19.7926 29.4062 19.94 29.2689L24.88 24.3289L19.94 19.3889C19.6591 19.1076 19.5013 18.7264 19.5013 18.3289C19.5013 17.9314 19.6591 17.5501 19.94 17.2689Z" fill="#FFE87B"/>
</svg>
