<svg width="48" height="49" viewBox="0 0 48 49" fill="none" xmlns="http://www.w3.org/2000/svg">
<path fill-rule="evenodd" clip-rule="evenodd" d="M24 44.3289C35.046 44.3289 44 35.3749 44 24.3289C44 13.2829 35.046 4.32886 24 4.32886C12.954 4.32886 4 13.2829 4 24.3289C4 35.3749 12.954 44.3289 24 44.3289ZM28.06 17.2689C28.3409 17.5501 28.4987 17.9314 28.4987 18.3289C28.4987 18.7264 28.3409 19.1076 28.06 19.3889L23.12 24.3289L28.06 29.2689C28.2074 29.4062 28.3256 29.5718 28.4076 29.7558C28.4895 29.9398 28.5336 30.1384 28.5372 30.3398C28.5407 30.5412 28.5037 30.7413 28.4282 30.9281C28.3528 31.1148 28.2405 31.2845 28.0981 31.4269C27.9556 31.5694 27.786 31.6817 27.5992 31.7571C27.4124 31.8325 27.2124 31.8696 27.011 31.866C26.8095 31.8625 26.6109 31.8184 26.4269 31.7364C26.2429 31.6544 26.0773 31.5362 25.94 31.3889L19.94 25.3889C19.6591 25.1076 19.5013 24.7264 19.5013 24.3289C19.5013 23.9314 19.6591 23.5501 19.94 23.2689L25.94 17.2689C26.2213 16.988 26.6025 16.8302 27 16.8302C27.3975 16.8302 27.7787 16.988 28.06 17.2689Z" fill="#FFE87B"/>
</svg>
